<svg xmlns="http://www.w3.org/2000/svg" xmlns:xlink="http://www.w3.org/1999/xlink" width="500" zoomAndPan="magnify" viewBox="0 0 375 374.999991" height="500" preserveAspectRatio="xMidYMid meet" version="1.0"><defs><clipPath id="196aefede0"><path d="M 112.5 136.363281 L 262.5 136.363281 L 262.5 238.363281 L 112.5 238.363281 Z M 112.5 136.363281 " clip-rule="nonzero"/></clipPath></defs><g clip-path="url(#196aefede0)"><path fill="#ffffff" d="M 187.5 136.363281 C 153.410156 136.363281 124.296875 157.566406 112.503906 187.5 C 124.296875 217.429688 153.410156 238.632812 187.5 238.632812 C 221.589844 238.632812 250.703125 217.429688 262.496094 187.5 C 250.703125 157.566406 221.625 136.363281 187.5 136.363281 Z M 187.5 221.589844 C 168.683594 221.589844 153.410156 206.316406 153.410156 187.5 C 153.410156 168.679688 168.683594 153.410156 187.5 153.410156 C 206.316406 153.410156 221.589844 168.679688 221.589844 187.5 C 221.589844 206.316406 206.316406 221.589844 187.5 221.589844 Z M 187.5 167.042969 C 176.214844 167.042969 167.046875 176.214844 167.046875 187.5 C 167.046875 198.78125 176.214844 207.953125 187.5 207.953125 C 198.785156 207.953125 207.953125 198.78125 207.953125 187.5 C 207.953125 176.214844 198.785156 167.042969 187.5 167.042969 Z M 187.5 167.042969 " fill-opacity="1" fill-rule="nonzero"/></g></svg>